<svg viewBox="0 -28 512 512" xmlns="http://www.w3.org/2000/svg">
    <path d="M256 483.516C248.711 483.516 241.684 480.875 236.207 476.078C215.523 457.992 195.582 440.996 177.988 426.004L177.898 425.926C126.316 381.969 81.7734 344.008 50.7812 306.613C16.1367 264.809 0 225.172 0 181.871C0 139.801 14.4258 100.988 40.6172 72.5781C67.1211 43.832 103.488 28 143.031 28C172.586 28 199.652 37.3438 223.477 55.7695C235.5 65.0703 246.398 76.4531 256 89.7305C265.605 76.4531 276.5 65.0703 288.527 55.7695C312.352 37.3438 339.418 28 368.973 28C408.512 28 444.883 43.832 471.387 72.5781C497.578 100.988 512 139.801 512 181.871C512 225.172 495.867 264.809 461.223 306.609C430.23 344.008 385.691 381.965 334.117 425.918C316.492 440.934 296.52 457.957 275.789 476.086C270.316 480.875 263.285 483.516 256 483.516Z" fill="#CD3333"/>
</svg>